<?xml version="1.0" encoding="utf-8"?>
<!-- Generator: Adobe Illustrator 28.5.0, SVG Export Plug-In . SVG Version: 9.03 Build 54727)  -->
<svg version="1.1" id="레이어_1" xmlns="http://www.w3.org/2000/svg" xmlns:xlink="http://www.w3.org/1999/xlink" x="0px"
	 y="0px" width="290.8px" height="77.9px" viewBox="0 0 290.8 77.9" style="enable-background:new 0 0 290.8 77.9;"
	 xml:space="preserve">
<style type="text/css">
	.st0{fill:#FFFFFF;}
	.st1{fill:#FFFFFF;}
</style>
<g>
	<path class="st0" d="M38.3,26.1c-1.2,0-4.2,0.2-6.7,2.6c-3.1,3-3.3,7.1-3.3,8.4c0,0.7,0,2.4,0.7,4.3c2,5.5,7.6,5.9,9.3,5.9
		c1.1,0,4.8-0.1,7.3-2.8c1.1-1.1,2.6-3.6,2.6-7.5c0-1.5-0.3-3.1-0.8-4.6C45.6,26.7,40.2,26.1,38.3,26.1z"/>
	<path class="st0" d="M91.1,0L39,0C17.4,0,0,17.4,0,39v0c0,21.5,17.4,39,39,39h52.1c21.5,0,39-17.4,39-39v0C130,17.4,112.6,0,91.1,0
		z M58.2,59.3l-10.9-5.6c-2.3,0.6-4.3,1.1-9,1.1c-7.7,0-12-1.6-15-3.5c-2.6-1.7-7.6-6-7.6-14.5c0-1.8,0.2-6.1,3-10.2
		c4.5-6.7,12.2-8.1,19.8-8.1c6,0,11.9,0.9,16.6,4.8c1.2,1,3.6,3.3,4.8,7.2c0.8,2.7,0.9,5.4,0.9,6.3c0,1.5-0.1,5.4-2.5,9.2
		c-0.5,0.7-1,1.4-1.5,2l5.9,2.8L58.2,59.3z M114.3,53.7h-12V32l-8,21.7H85l-8-21.6v21.6H65.1V19.8h16.1L89.8,42l8.5-22.1h16V53.7z"
		/>
</g>
<g>
	<path class="st1" d="M146.3,56.1V22.2h12.2v25.6h17.3v8.3H146.3z"/>
	<path class="st1" d="M179.4,56.1V22.2h12.1v33.9H179.4z"/>
	<path class="st1" d="M234.6,56.1V34.4l-8,21.7h-9.4l-8-21.6v21.6h-11.9V22.2h16.1l8.5,22.1l8.5-22.1h16v33.9H234.6z"/>
	<path class="st1" d="M284.8,51.6c-2.8,3.6-7.9,5.5-17.2,5.5c-8,0-12.5-1.9-15-4.7c-2.3-2.5-2.5-5.2-2.7-6.4l12-0.3
		c0.1,0.6,0.3,1.5,1.5,2.4c1.2,0.9,2.8,1.5,6,1.5c1.2,0,2.8-0.1,3.9-0.7c1-0.5,1.9-1.5,1.9-2.7c0-0.8-0.3-1.8-1.9-2.4
		c-0.8-0.3-2.8-0.7-5.2-1.2c-2.6-0.5-5.3-1-8-1.7c-2.9-0.8-5.5-1.8-7.2-4.5c-1.2-1.9-1.3-3.8-1.3-4.7c0-1.8,0.5-3.5,1.5-5
		c2.2-3.6,6.9-5.9,15.6-5.9c3,0,7.7,0.4,10.6,1.3c1.2,0.4,2.3,1,3.3,1.7c3.2,2.4,3.7,5.3,3.9,6.8l-11.9,0.7
		c-0.1-0.4-0.2-0.8-0.4-1.1c-0.8-1.3-2.5-2.1-5.6-2.1c-0.2,0-3.1,0-4.6,1.2c-0.7,0.5-0.8,1.3-0.8,1.6c0,0.4,0.1,1,0.8,1.5
		c1.7,1.3,7.7,2.2,13.7,3.6c3.9,0.9,5.7,1.9,7,3.3c0.9,0.9,2.3,2.6,2.3,5.8C287.1,47.5,286.3,49.8,284.8,51.6z"/>
</g>
</svg>
